<svg id="Logo_ROIT_branca_e_dourada" data-name="Logo ROIT branca e dourada" xmlns="http://www.w3.org/2000/svg" width="289.664" height="90" viewBox="0 0 289.664 90">
  <g id="Grupo_1" data-name="Grupo 1">
    <path id="Caminho_76" data-name="Caminho 76" d="M142.715,2029.121l40.071.169s14.473,2.223,13.514,17.056c-1.2,9.329-12.918,12.44-12.918,12.44l7.183,12.439s21.532-5.741,20.573-27.272a29.839,29.839,0,0,0-27.75-29.324c-9.57,0-40.915-.056-40.915-.056Z" transform="translate(-134.067 -2014.267)" fill="#fff"/>
    <path id="Caminho_77" data-name="Caminho 77" d="M191.1,2043.767a29.672,29.672,0,0,0-29.649-29.637H114.105l8.677,14.892,38.672.038A34.46,34.46,0,0,1,191.1,2043.767Z" transform="translate(-114.105 -2013.955)" fill="#dba958"/>
    <path id="Caminho_78" data-name="Caminho 78" d="M495.516,2027.2a44.428,44.428,0,1,1-31.642-13.24A42.91,42.91,0,0,1,495.516,2027.2Zm-52.846,10.55a29.924,29.924,0,1,0,21.2-8.745,28.7,28.7,0,0,0-21.2,8.742Z" transform="translate(-328.952 -2013.833)" fill="#fff"/>
    <rect id="Retângulo_383" data-name="Retângulo 383" width="15.129" height="15.129" transform="translate(193.03)" fill="#dba958"/>
    <path id="Caminho_79" data-name="Caminho 79" d="M781.383,2154.179l-.047-68.325-15.014,15.217.025,53.1Z" transform="translate(-573.024 -2064.422)" fill="#fff"/>
    <path id="Caminho_80" data-name="Caminho 80" d="M854.731,2013.656l-15.3,15.07h29.837l.081,74.9,14.992-.019-.109-74.877h5.309l24.59.059v-.059h0v-15.07Z" transform="translate(-624.462 -2013.621)" fill="#fff"/>
    <path id="Caminho_81" data-name="Caminho 81" d="M235.366,2209.783s-25.58-43.239-26.285-44.575H186.462v14.817h13.973l17.434,29.758Z" transform="translate(-165.018 -2120.258)" fill="#fff"/>
  </g>
</svg>
